<?xml version="1.0" encoding="utf-8"?>
<!-- Generator: Adobe Illustrator 24.0.1, SVG Export Plug-In . SVG Version: 6.00 Build 0)  -->
<svg version="1.1" id="Layer_1" xmlns="http://www.w3.org/2000/svg" xmlns:xlink="http://www.w3.org/1999/xlink" x="0px" y="0px"
	 viewBox="0 0 1296 1728" style="enable-background:new 0 0 1296 1728;" xml:space="preserve">
<style type="text/css">
	.st0{fill:#FEFEFE;}
	.st1{fill:#E30232;}
	.st2{fill:#1D1D1C;}
</style>
<g>
	<g>
		<path class="st0" d="M404.42,663.09c0-117.08,0.08-234.16-0.19-351.23c-0.02-6.92,1.47-8.3,8.32-8.29
			c124.02,0.25,248.04,0.19,372.06,0.19c-2.27,5.29-3.69,10.32,0.82,15.52c1.46,1.68,4.62,4.08,2.02,7.31
			c-2.56,3.17-5.31,1.71-8.5,0.68c-13.23-4.25-26.76-7.61-39.83-12.26c-7.49-2.67-13.99-2.33-18.75,3.62
			c-4.38,5.47-3.52,12.16-0.98,18.71c3.58,9.21,9.18,16.86,18.11,23.82c-3.94,0-6.26-0.43-8.36,0.07
			c-9.53,2.26-11.87,8.83-5.3,16.19c4.15,4.66,9.38,8.37,14.22,12.39c2.84,2.36,5.81,2.85,7.98-0.85c1.81-3.07,2.56-6.34-1.26-8.54
			c-2.2-1.27-4.56-2.13-4.04-5.99c17.04-0.18,33.01,5.47,49.27,9.03c6.57,1.44,8.3-0.3,8.59-6.53c0.26-5.61-3.4-7.36-7.24-7.77
			c-8.47-0.89-16.44-3.64-24.31-6.32c-12.66-4.3-24.19-10.67-32.46-21.89c-2.63-3.57-5.51-7.44-2.41-10.92
			c2.76-3.09,7.72-1.95,11.64-0.47c12.14,4.57,24.28,8.96,37.13,11.4c11.12,2.11,18.58-4.38,17.49-15.9
			c-0.85-8.98-7.48-14.47-11.92-21.3c32.48,0,64.96,0.23,97.43-0.2c6.56-0.09,7.83,1.3,7.83,7.84
			c-0.22,229.04-0.18,458.08-0.18,687.13c0,167.88-0.05,335.76,0.18,503.64c0.01,6.54-1.28,7.84-7.83,7.83
			c-157.3-0.24-314.59-0.24-471.89,0c-6.54,0.01-7.83-1.28-7.82-7.83c0.21-263.76,0.18-527.53,0.18-791.29
			c2.96,7.64,2.35,15.94,4.2,23.73c9.93,41.89,28.56,79.24,59.3,109.84c10.83,10.78,21.04,22.53,35.52,28.9
			c6.4,12.47,14.56,23.69,25.4,33.81c-9.37,1.97-17.12-1.86-25.29-1.63c-6.55,0.19-7.84,2.27-7.55,8.16
			c0.73,14.71,7.57,27.38,13.06,40.44c9.28,22.08,11.45,22.14,27.9,3.7c2.42-2.71,2.85-4.17-0.08-6.48
			c-1.33-1.05-3.31-2.37-2.17-4.69c1.22-2.49,3.2-0.82,4.92-0.76c16.63,0.6,32.62,5.21,48.79,8.31
			c38.34,7.36,76.31,16.59,114.63,24.05c20.71,4.03,40.25,9.48,57.25,22.85c11.13,8.75,22.78,17.04,35.61,23.38
			c0.58,1.8,1.77,2.05,3.34,1.32c-0.57-0.86-1.14-1.72-1.72-2.58c-3.29-7.71-10.18-12.61-15.4-18.68
			c-10.56-12.29-21.35-24.85-36.81-31.57c-28-12.17-56.69-22.45-86.05-30.87c-7.08-2.03-15.79-2.44-20.59-6.96
			c-3.26-3.07-0.91-12-1.29-18.29c-0.11-1.78-0.99-3.51-1.52-5.26c9.13-0.06,18.19-0.08,27.28-1.84c19.5-3.78,38.7-8.28,56.45-17.59
			c8.56,15.41,21.64,25.02,38.34,30.1c12.84,3.91,25.94,5.29,35.5-5.75c10.09-11.65,6.07-25.06,0.61-37.69
			c-1.59-3.68-3.44-7.52-7.43-9.3c-2-0.9-4.08-3.54-6.53-0.35c-1.79,2.33-1.77,4.88-0.67,7.12c0.91,1.86,3.12,3.04,4.28,4.82
			c6.37,9.78,5.33,19.78-2.43,24.82c-6.08,3.95-11.58,2.43-13.15-4.5c-2.42-10.71-7.1-20.31-12.53-29.66
			c7.1-4.34,14.31-8.54,19.41-15.4c4.55-1.44,8.49,1.5,12.82,1.98c10.37,1.13,10.92,0.65,10.33-9.72c-0.34-6.1-6.36-2.81-7.81-6.21
			c12.08-12.35,22.34-26.09,30.83-41.11c12.89-22.82,23.25-46.59,26.45-72.94c3.53-0.66,6.36,0.19,9.67,2.09
			c9.15,5.24,16.65,13.33,28.82,17.59c-9.12-16.39-22.06-24.99-36.61-31.74c1.2-2.59,2.03-5.18,1.99-8.17
			c-0.26-21.43,0.88-42.87-3.79-64.12c-8.73-39.71-25.22-75.45-53.01-105.41c-9.88-10.65-20.73-20.38-31.14-30.53
			c8.17-0.45,15.94,3.25,24.23,2.16c4.68-0.61,8.73-1.57,10.05-6.82c2.58-10.24-3.35-25.99-11.93-31.99
			c-2.62-1.83-5.27-2.6-7.75-0.22c-2.78,2.66-0.24,4.4,1.45,6.29c3.43,3.83,7.1,8.3,4.07,13.35c-2.69,4.48-8.21,1.48-12.44,2.01
			c-1.38,0.17-2.91-0.79-4.36-1.28c-19.36-6.53-38.57-13.56-58.14-19.39c-8.38-2.49-10.33-7.27-10.19-14.88
			c0.24-13.04,0.27-26.1-0.02-39.14c-0.28-12.91-5.06-24.91-8.11-37.42c0.03,23.54-3.7,46.69-3.32,70.04
			c0.23,14.25-0.14,14.71-13.16,9.47c-7.25-2.92-9.89-2.21-8.13,5.94c-11.17-3.05-22.64-1.65-33.97-2.17
			c-35.36-1.6-68.87,5.88-100.67,21.3c-27.59,13.37-51.42,31.6-71.65,54.67c-22.82,26.01-38.32,55.76-47.67,89.04
			C408.7,640.3,408.01,651.99,404.42,663.09z M716.93,1505.57c6.65-7.22,13.58-14.2,19.91-21.69
			c26.42-31.26,53.79-61.75,78.85-94.14c15.8-20.42,31.86-40.66,44.55-63.33c5.75-10.27,4.37-19.39-1.88-28.25
			c-3.27-4.63-7.31-8.81-11.46-12.71c-30.88-29.04-67.59-49.28-105.31-67.38c-43.62-20.94-89.21-37.2-135.87-50.07
			c-43.79-12.08-88.44-20.14-133.37-26.68c-3.04-0.44-3.97,1.49-4.67,3.58c-5.23,15.53-14.29,28.41-27.11,38.91
			c27.25,25.84,32.83,58.71,30.45,95.15c16.12-11.78,29.47-24.13,30.47-43.29c0.95-18.14-6.33-35.21-12.31-52.08
			c3.63-1.99,6.27,0.9,9.3,1.37c41.35,6.49,81.92,16.42,122.15,27.82c40.57,11.5,80.37,25.43,118.54,43.21
			c32.81,15.28,64.37,33.14,91.55,57.77c4.03,3.65,4.25,6.06,1.74,10.22c-5.09,8.47-9.7,17.23-14.81,25.69
			c-16.64,27.54-34.59,54.43-56.05,78.2c-20.5,22.7-33.7,48.88-45.94,76.09c-1.8,0.58-2.05,1.77-1.32,3.35
			C715.21,1506.71,716.07,1506.14,716.93,1505.57z M599.47,1041.54c4.94,0,9.01,0.21,13.06-0.04c14.27-0.88,24.66-11.2,22.89-23.91
			c-1.78-12.77-6.44-24.32-18.12-31.94c-10.32-6.73-9.93-6.86-13.3,4.9c-1.05,3.65,0.14,5.22,2.18,7.28
			c3.12,3.16,6.66,6.05,9.14,9.66c4.17,6.08,2.17,12.44-3.94,12.87c-6.61,0.46-13.52,0.83-19.9-0.57
			c-26.38-5.76-52.85-11.37-78.78-18.79c-10.62-3.04-13.61,1.83-16.1,9.21c-1.57,4.64-2.07,9.77-2.3,14.71
			c-1.44,30.8,9.31,57.1,31.35,78.23c22.92,21.98,49.43,35.14,82.66,30.29c17.3-2.52,29.74-14.57,29.09-31.56
			C636.37,1075.22,618.58,1058.76,599.47,1041.54z M771.34,460.53c11.68,0.23,20.31-2.65,24.87-12.47
			c5.68-12.24,1.93-33.9-10.79-43.22c-4.27-3.13-5.56-0.78-6.44,2.66c-0.66,2.57,0.18,4.83,2.34,6.76
			c6.54,5.83,5.86,13.76,4.96,21.19c-0.67,5.53-5.05,7.64-10.75,7.99c-6,0.37-7.19-2.79-8.21-7.62
			c-2.46-11.7-6.74-22.64-16.17-30.69c-7.09-6.05-19.76-7.24-26.57-1.45c-6.35,5.4-7.32,12.42-5.49,21.24
			C723.38,445.5,753.87,460.99,771.34,460.53z M885.85,750.07c0.83,0.29,1.6,0.66,2.39,0.75c0.22,0.02,0.54-0.79,0.81-1.23
			c-0.79-0.43-1.57-0.85-2.36-1.28C886.46,748.81,886.22,749.31,885.85,750.07z"/>
		<path class="st1" d="M847.66,728.39c-3.2,26.35-13.57,50.12-26.45,72.94c-8.49,15.03-18.75,28.76-30.83,41.11
			c-8.38-0.68-16.37-2.74-25.57-6.41c4.9-1.25,8.23-2.05,11.53-2.94c22.44-6.07,28.52-23.16,14.05-39.37
			c-2.36-2.65-5.28-6.18-8.48-3.54c-2.46,2.02-1.63,6.17,0.71,9.47c6.06,8.55,5.26,12.19-3.38,18.73c-9.4,7.11-18.2,7.41-23.63-0.01
			c-7.64-10.45-17.36-18.11-28.34-24.76c-5.06-3.07-6.26-1.34-8.25,2.83c-2.82,5.91,0.63,8.02,5.06,9.97
			c12.28,5.39,20.86,14.66,28.34,25.83c-3.21,1.12-5.25,0.8-7.5,0.26c-24.64-5.96-49.33-11.75-73.98-17.66
			c-2.2-0.53-4.45-1.5-6.16,0.53c-1.96,2.32,3.18,15.04,6.41,15.81c14.01,3.31,28.09,6.32,42.08,9.73
			c20.62,5.03,41.18,10.32,61.77,15.5c-5.1,6.86-12.31,11.06-19.41,15.4c-2.32-1.56-4.58-3.23-6.98-4.67
			c-12.83-7.71-26.24-2.56-30.49,11.31c-1.54,5.02,1.8,9.09,1.47,13.74c-17.75,9.31-36.95,13.81-56.45,17.59
			c-9.08,1.76-18.15,1.78-27.28,1.84c-5.58-21.61-20.63-36.85-36.73-50.29c-21.79-18.19-47.33-26.75-76.15-20.44
			c-13.45,2.95-19.13,10.44-19.26,23.91c-0.03,2.85-0.2,5.71-0.3,8.56c-14.49-6.37-24.7-18.12-35.52-28.9
			c-30.74-30.6-49.38-67.94-59.3-109.84c-1.85-7.8-1.24-16.09-4.2-23.73c0-15.93,0-31.86,0-47.78c3.59-11.09,4.28-22.78,7.45-34.04
			c9.35-33.28,24.86-63.03,47.67-89.04c20.23-23.06,44.07-41.3,71.65-54.67c31.8-15.42,65.32-22.9,100.67-21.3
			c11.33,0.51,22.8-0.88,33.97,2.17c1.05,9.1,7.99,11.74,15.32,13.38c6.27,1.4,8.15,4.45,8.14,11.02
			c-0.05,17.47,2.18,34.77,6.27,52.17c11.95-7.85,12.57-10.14,10.34-22.08c-2.03-10.83-4.9-21.74-2.71-33.35
			c10.22,3.45,19.62,6.69,29.06,9.81c9.78,3.23,19.61,6.35,29.41,9.52c0.7,0.54,1.4,1.08,2.09,1.62l-0.19-0.19
			c10.41,10.15,21.27,19.89,31.14,30.53c27.8,29.96,44.29,65.7,53.01,105.41c4.67,21.25,3.53,42.69,3.79,64.12
			c0.04,2.99-0.79,5.58-1.99,8.17c-13.05-4.23-25.94-9.09-39.2-12.46c-8.84-2.25-14.23-5.36-12.55-15.61
			c0.41-2.52-0.8-5.74-2.21-8.05c-11.83-19.26-30.11-35.84-56.69-34.35c-12.64,0.71-18.51,10.8-13.79,22.69
			c2.39,6.01,8.09,9.38,11.15,15.56c-4.07,0-7.27,0.25-10.42-0.05c-6.89-0.66-8.18,2.35-6.2,8.34c3.32,10.07,6.56,20.16,12.3,31.13
			c3.43-6.91,13.32-8.06,8.71-18.24c20.56,3.91,40.38,6.79,59.71,11.64C816.09,720.89,832.51,722.06,847.66,728.39z M599.84,733.8
			c4.87,0,7.05,0.15,9.19-0.03c12.8-1.07,22.82-7.83,25.63-17.21c3.94-13.14-10.8-40.6-23.39-43.66c-2.73-0.66-3.65,0.96-5.07,2.92
			c-7.13,9.79,0.29,14.89,6.26,20.52c3.31,3.12,6.12,6.6,4.33,11.44c-1.91,5.16-6.62,5.06-11.08,4.98c-2.53-0.04-5.1-0.04-7.58-0.46
			c-29.33-4.93-57.93-13.15-86.86-19.83c-7.37-1.7-11.37,0.4-14.14,7c-5.14,12.25-4.49,25.45-2.4,37.51
			c8.56,49.3,56.14,93.08,107.58,88.43c14.03-1.27,27.66-4.77,33.54-20.07c3.97-10.35,1.42-20.43-2.48-30.23
			C626.9,758.85,614.59,747.09,599.84,733.8z M529.45,641.55c0.63-1.2,1.27-2.4,1.9-3.6c16.16,2.95,32.36,5.66,48.46,8.91
			c15.93,3.21,31.74,7.02,47.64,10.42c4.11,0.88,8.21,1.34,9.86-4.25c3.46-11.72-0.44-18.26-12.47-20.66
			c-2.14-0.43-4.2-1.29-6.34-1.75c-28.38-6.15-56.12-14.17-79.08-32.94c-8.89-7.26-18.63-14.45-21.59-26.84
			c-1.83-7.69,2.86-13.43,10.42-12.06c6.14,1.11,12.15,2.7,18.06,4.97c19.61,7.54,39.6,13.97,60.08,18.69
			c16.84,3.88,31.4-7.81,31.01-25.19c-0.37-16.34-10.17-27.89-21.12-38.67c-3.31-3.26-5.16-0.45-6.8,1.7
			c-4.68,6.15-3.22,14.18,3.87,22.08c3.27,3.64,6.67,7.69,4.41,12.61c-2.38,5.2-7.91,2.44-12.09,2.89c-1.48,0.16-3.06-0.56-4.58-0.9
			c-25.46-5.61-49.27-16.55-74.47-23.02c-13.61-3.5-25.05,0.42-29.82,11.24c-5.12,11.63-3.39,23.34,1.53,34.76
			c6,13.92,15.51,25.09,27.47,34.59c-4.37,1.59-8.35,2.26-12.3,3.13c-17.2,3.82-20.29,15.53-8.32,28.82
			c7.94,8.8,18.22,14.67,26.82,22.63c4.38,4.05,8.58,1.25,11.17-2.69c2.22-3.39,7-7.03,1.14-11.72
			C539.16,650.58,534.39,645.96,529.45,641.55z M786.5,608.42c1.54,8.01-2.58,12.64-10,14.32c-8.86,2.01-7.82-5.92-9.64-10.63
			c-3.38-8.74-5.75-17.83-12.55-25c-6.44-6.78-14.15-9.18-22.9-7.87c-7.5,1.12-10.92,7.4-12.92,13.75
			c-2.57,8.2,1.32,15.69,5.82,21.95c11.31,15.69,28.07,22.4,46.47,25.05c13.2,1.9,25.29-6.99,27.18-18.93
			c1.96-12.42-0.57-23.8-8.38-33.79c-2.08-2.67-4.44-6.44-8.44-3.45c-3.84,2.87-3.03,6.73,0.09,9.84
			C785.33,597.75,787.13,602.53,786.5,608.42z M735.93,730.81c-15.01-2.36-15.93-1.59-16.27,13.69c-0.06,2.86-0.11,5.72,0.01,8.58
			c0.37,8.29,8.4,18.13,16.78,20.67c9.49,2.88,19.28-0.24,24.6-8.23c2.06-3.1,3.22-6.79,5.11-10.02c4.84-8.23,11.55-8.5,17.24-0.85
			c5.33,7.18,4.03,12.5-5.88,24.01c9.63,11.02,10.07,10.71,17.07-1.82c4.9-8.78,4.08-17.43,1.97-26.46
			c-2.41-10.36-9.66-16.51-19.32-18.13c-9.82-1.64-16.22,5.5-21.26,13.03c-2.27,3.4-4.17,6.96-7.04,10.02
			c-3.62,3.85-7.64,4.31-12.04,2.48c-4.22-1.76-5.69-5.43-5.82-9.91C730.89,741.63,734.24,736.47,735.93,730.81z M719.18,539.14
			c0.46,3.15,1.56,6.23,1.2,9.14c-0.92,7.5,4.28,8.35,9.38,9.5c19.87,4.44,39,11.34,58.35,17.51c10.79,3.44,10.57,3.54,9.96-7.51
			c-0.21-3.83-1.45-5.5-5.18-6.49c-6.94-1.85-13.55-5.3-20.57-6.41c-18.91-2.98-28.59-15.84-34.58-31.97
			c-2.73-7.36-7.85-8.04-13.66-8.8c-3.93-0.52-4.64,1.22-3.57,5.16c2.55,9.31,7.55,16.81,15.71,22.96
			C729.7,543.6,725.31,538.96,719.18,539.14z"/>
		<path class="st2" d="M786.51,303.76c4.44,6.83,11.07,12.32,11.92,21.3c1.09,11.52-6.37,18.01-17.49,15.9
			c-12.85-2.44-24.99-6.83-37.13-11.4c-3.92-1.48-8.88-2.62-11.64,0.47c-3.11,3.48-0.22,7.35,2.41,10.92
			c8.27,11.22,19.81,17.59,32.46,21.89c7.88,2.68,15.84,5.42,24.31,6.32c3.84,0.41,7.5,2.16,7.24,7.77
			c-0.28,6.23-2.02,7.97-8.59,6.53c-16.27-3.57-32.23-9.21-49.27-9.03c-0.52,3.86,1.83,4.72,4.04,5.99c3.82,2.2,3.06,5.48,1.26,8.54
			c-2.17,3.7-5.15,3.21-7.98,0.85c-4.84-4.02-10.06-7.73-14.22-12.39c-6.57-7.36-4.23-13.93,5.3-16.19c2.1-0.5,4.42-0.07,8.36-0.07
			c-8.93-6.96-14.53-14.61-18.11-23.82c-2.54-6.55-3.4-13.24,0.98-18.71c4.76-5.95,11.26-6.28,18.75-3.62
			c13.07,4.66,26.61,8.01,39.83,12.26c3.19,1.03,5.94,2.5,8.5-0.68c2.6-3.22-0.57-5.63-2.02-7.31c-4.51-5.2-3.09-10.23-0.82-15.52
			C785.24,303.76,785.88,303.76,786.51,303.76z"/>
		<path class="st2" d="M715.67,1503.94c12.24-27.21,25.44-53.38,45.94-76.09c21.46-23.77,39.41-50.66,56.05-78.2
			c5.11-8.46,9.71-17.22,14.81-25.69c2.5-4.16,2.29-6.57-1.74-10.22c-27.18-24.62-58.74-42.48-91.55-57.77
			c-38.17-17.78-77.97-31.7-118.54-43.21c-40.23-11.41-80.8-21.34-122.15-27.82c-3.03-0.48-5.67-3.36-9.3-1.37
			c5.98,16.88,13.26,33.94,12.31,52.08c-1,19.16-14.35,31.51-30.47,43.29c2.38-36.44-3.2-69.31-30.45-95.15
			c12.82-10.5,21.88-23.38,27.11-38.91c0.7-2.09,1.63-4.02,4.67-3.58c44.93,6.54,89.58,14.59,133.37,26.68
			c46.66,12.88,92.25,29.14,135.87,50.07c37.72,18.1,74.44,38.34,105.31,67.38c4.15,3.9,8.19,8.08,11.46,12.71
			c6.25,8.86,7.63,17.98,1.88,28.25c-12.69,22.68-28.75,42.92-44.55,63.33c-25.06,32.39-52.42,62.88-78.85,94.14
			c-6.33,7.49-13.26,14.48-19.91,21.69C716.51,1505.02,716.09,1504.48,715.67,1503.94z"/>
		<path class="st2" d="M503.45,873.34c0.1-2.85,0.27-5.7,0.3-8.56c0.13-13.47,5.81-20.97,19.26-23.91
			c28.82-6.32,54.37,2.25,76.15,20.44c16.1,13.44,31.15,28.68,36.73,50.29c0.53,1.75,1.41,3.48,1.52,5.26
			c0.38,6.3-1.97,15.23,1.29,18.29c4.8,4.52,13.51,4.93,20.59,6.96c29.36,8.42,58.05,18.7,86.05,30.87
			c15.45,6.71,26.25,19.28,36.81,31.57c5.22,6.07,12.11,10.97,15.4,18.68c-0.54,0.42-1.09,0.84-1.63,1.26
			c-12.82-6.33-24.48-14.62-35.61-23.38c-17-13.37-36.54-18.82-57.25-22.85c-38.32-7.46-76.29-16.69-114.63-24.05
			c-16.17-3.1-32.16-7.71-48.79-8.31c-1.72-0.06-3.7-1.73-4.92,0.76c-1.14,2.32,0.84,3.64,2.17,4.69c2.92,2.31,2.5,3.77,0.08,6.48
			c-16.45,18.44-18.62,18.38-27.9-3.7c-5.49-13.05-12.33-25.73-13.06-40.44c-0.29-5.89,0.99-7.97,7.55-8.16
			c8.17-0.24,15.92,3.6,25.29,1.63C518.01,897.03,509.85,885.82,503.45,873.34z M559.18,902.31c1.71,1.76,3.32,3.65,5.15,5.27
			c13.59,12.04,30.47,16.66,47.48,20.99c8.35,2.13,12.64-1.87,9.83-10.13c-0.81-2.39-0.13-5.77-2.99-7.44
			c-2.38-8.26-7.37-14.22-14.71-18.88c-9.06-5.75-18.58-10.52-28.22-15.11c-12.52-5.95-25.89-9.37-39.19-12.95
			c-3.74-1.01-7.57-0.68-10.26,3.05c-2.94,4.09,0.79,6.46,2.45,9.06C536.21,887.91,547.31,895.6,559.18,902.31z"/>
		<path class="st2" d="M599.47,1041.54c19.11,17.23,36.9,33.69,37.92,60.33c0.65,16.99-11.79,29.04-29.09,31.56
			c-33.22,4.84-59.73-8.32-82.66-30.29c-22.04-21.13-32.8-47.42-31.35-78.23c0.23-4.94,0.74-10.07,2.3-14.71
			c2.49-7.38,5.47-12.25,16.1-9.21c25.93,7.42,52.4,13.03,78.78,18.79c6.39,1.39,13.3,1.02,19.9,0.57
			c6.11-0.42,8.11-6.78,3.94-12.87c-2.48-3.61-6.02-6.5-9.14-9.66c-2.04-2.07-3.23-3.63-2.18-7.28c3.37-11.76,2.99-11.63,13.3-4.9
			c11.68,7.62,16.34,19.18,18.12,31.94c1.78,12.72-8.62,23.03-22.89,23.91C608.48,1041.75,604.41,1041.54,599.47,1041.54z
			 M526.25,1026.05c-7.46,0.42-9.66,5.04-8.81,10.97c0.6,4.2,2.37,8.42,4.4,12.21c16.05,29.99,42.58,45.04,74.8,51.44
			c8.78,1.74,14.68-5.32,11.85-13.79c-1.55-4.64-4.13-9.02-6.76-13.19c-11.49-18.29-29.77-28.13-48.05-37.74
			C544.98,1031.36,535.81,1027.56,526.25,1026.05z"/>
		<path class="st2" d="M847.66,728.39c-15.15-6.33-31.57-7.5-47.31-11.45c-19.32-4.85-39.15-7.73-59.71-11.64
			c4.61,10.18-5.28,11.33-8.71,18.24c-5.74-10.98-8.98-21.06-12.3-31.13c-1.98-5.99-0.68-9,6.2-8.34c3.15,0.3,6.34,0.05,10.42,0.05
			c-3.06-6.18-8.77-9.56-11.15-15.56c-4.72-11.89,1.15-21.98,13.79-22.69c26.58-1.49,44.86,15.09,56.69,34.35
			c1.42,2.31,2.63,5.53,2.21,8.05c-1.68,10.25,3.71,13.36,12.55,15.61c13.27,3.37,26.15,8.23,39.2,12.46
			c14.54,6.74,27.49,15.34,36.61,31.74c-12.16-4.25-19.66-12.35-28.82-17.59C854.02,728.58,851.18,727.73,847.66,728.39z
			 M736.22,662.09c-0.08,3.73,1.65,7.17,4.24,9.09c12.65,9.39,23.64,21.84,40.43,24.06c2.72,0.36,6.14,3.48,8.59,0.02
			c2.03-2.87,0.39-5.93-0.94-8.89C782.68,673.28,752.83,659.3,736.22,662.09z"/>
		<path class="st2" d="M761.68,506.67c-9.81-3.17-19.63-6.28-29.41-9.52c-9.44-3.12-18.84-6.35-29.06-9.81
			c-2.19,11.61,0.68,22.52,2.71,33.35c2.24,11.94,1.61,14.23-10.34,22.08c-4.09-17.4-6.32-34.71-6.27-52.17
			c0.02-6.57-1.87-9.62-8.14-11.02c-7.33-1.64-14.27-4.28-15.32-13.38c-1.77-8.15,0.87-8.86,8.12-5.94
			c13.02,5.24,13.39,4.78,13.16-9.47c-0.38-23.35,3.35-46.5,3.32-70.04c3.05,12.51,7.83,24.51,8.11,37.42
			c0.28,13.04,0.25,26.09,0.02,39.14c-0.14,7.61,1.81,12.39,10.19,14.88c19.57,5.83,38.78,12.85,58.14,19.39
			c1.45,0.49,2.98,1.45,4.36,1.28c4.23-0.53,9.75,2.47,12.44-2.01c3.04-5.05-0.64-9.52-4.07-13.35c-1.69-1.88-4.23-3.62-1.45-6.29
			c2.48-2.38,5.13-1.61,7.75,0.22c8.57,6,14.51,21.75,11.93,31.99c-1.32,5.25-5.37,6.21-10.05,6.82
			c-8.29,1.08-16.06-2.61-24.23-2.16c0,0,0.19,0.19,0.19,0.19C764.48,505.92,762.78,506.69,761.68,506.67z"/>
		<path class="st2" d="M775.03,856.39c-20.59-5.18-41.15-10.46-61.77-15.5c-13.98-3.41-28.07-6.42-42.08-9.73
			c-3.24-0.76-8.37-13.49-6.41-15.81c1.71-2.03,3.96-1.05,6.16-0.53c24.66,5.91,49.34,11.7,73.98,17.66
			c2.25,0.55,4.29,0.86,7.5-0.26c-7.48-11.16-16.06-20.44-28.34-25.83c-4.43-1.94-7.88-4.06-5.06-9.97
			c1.99-4.16,3.19-5.89,8.25-2.83c10.98,6.65,20.7,14.31,28.34,24.76c5.43,7.42,14.22,7.12,23.63,0.01
			c8.64-6.54,9.44-10.18,3.38-18.73c-2.34-3.3-3.16-7.45-0.71-9.47c3.2-2.64,6.12,0.89,8.48,3.54c14.46,16.21,8.38,33.3-14.05,39.37
			c-3.31,0.89-6.64,1.7-11.53,2.94c9.2,3.67,17.2,5.73,25.57,6.41c1.45,3.4,7.47,0.11,7.81,6.21c0.59,10.37,0.03,10.84-10.33,9.72
			C783.52,857.89,779.58,854.95,775.03,856.39z"/>
		<path class="st2" d="M719.62,892.17c0.33-4.65-3.01-8.72-1.47-13.74c4.25-13.87,17.66-19.02,30.49-11.31
			c2.4,1.44,4.66,3.11,6.98,4.67c5.44,9.35,10.11,18.95,12.53,29.66c1.57,6.93,7.06,8.45,13.15,4.5c7.75-5.04,8.8-15.04,2.43-24.82
			c-1.16-1.79-3.37-2.96-4.28-4.82c-1.1-2.24-1.12-4.79,0.67-7.12c2.45-3.19,4.53-0.55,6.53,0.35c3.98,1.78,5.84,5.62,7.43,9.3
			c5.45,12.63,9.48,26.04-0.61,37.69c-9.56,11.04-22.66,9.66-35.5,5.75C741.27,917.19,728.18,907.59,719.62,892.17z M744.76,879.05
			c-2.23-2.52-5.03-3.89-7.98-1.85c-3.13,2.16-2.73,5.05-0.17,7.68c3.27,7.67,9.29,12.09,17.24,14.63
			C750.74,892.56,752.53,883.71,744.76,879.05z"/>
		<path class="st2" d="M771.34,460.53c-17.47,0.46-47.96-15.03-52.25-35.62c-1.84-8.82-0.86-15.84,5.49-21.24
			c6.81-5.79,19.48-4.6,26.57,1.45c9.43,8.05,13.71,18.99,16.17,30.69c1.02,4.84,2.21,7.99,8.21,7.62
			c5.7-0.35,10.08-2.45,10.75-7.99c0.9-7.43,1.58-15.36-4.96-21.19c-2.17-1.93-3.01-4.18-2.34-6.76c0.88-3.43,2.17-5.78,6.44-2.66
			c12.72,9.32,16.47,30.98,10.79,43.22C791.65,457.88,783.02,460.76,771.34,460.53z M754.14,437.22
			c-2.07-8.37-3.18-15.78-7.94-21.86c-2.85-3.63-7.33-3.93-10.09-1.94c-2.62,1.89-2.21,6.51,0.45,9.2
			C741.76,427.9,745.9,434.5,754.14,437.22z"/>
		<path class="st2" d="M885.85,750.07c0.36-0.76,0.6-1.26,0.84-1.76c0.79,0.43,1.57,0.85,2.36,1.28c-0.27,0.43-0.59,1.25-0.81,1.23
			C887.45,750.73,886.69,750.36,885.85,750.07z"/>
		<path class="st2" d="M797.55,1023.23c0.57,0.86,1.14,1.72,1.72,2.58c-1.58,0.74-2.76,0.48-3.34-1.32
			C796.47,1024.07,797.01,1023.65,797.55,1023.23z"/>
		<path class="st2" d="M716.93,1505.57c-0.86,0.57-1.72,1.15-2.58,1.72c-0.74-1.58-0.48-2.76,1.32-3.35
			C716.09,1504.48,716.51,1505.02,716.93,1505.57z"/>
		<path class="st2" d="M599.84,733.8c14.75,13.29,27.07,25.05,33.53,41.31c3.89,9.8,6.45,19.89,2.48,30.23
			c-5.88,15.3-19.51,18.8-33.54,20.07c-51.44,4.65-99.01-39.13-107.58-88.43c-2.09-12.06-2.75-25.26,2.4-37.51
			c2.77-6.6,6.77-8.7,14.14-7c28.94,6.68,57.53,14.9,86.86,19.83c2.48,0.42,5.05,0.42,7.58,0.46c4.46,0.08,9.17,0.17,11.08-4.98
			c1.79-4.84-1.01-8.31-4.33-11.44c-5.97-5.63-13.39-10.73-6.26-20.52c1.42-1.96,2.34-3.58,5.07-2.92
			c12.59,3.06,27.32,30.52,23.39,43.66c-2.81,9.38-12.83,16.15-25.63,17.21C606.89,733.96,604.71,733.8,599.84,733.8z
			 M596.28,791.15c12.75,0.02,15.17-3.45,10.71-15.51c-0.64-1.73-1.58-3.36-2.42-5.01c-8.26-16.38-22.03-27.07-37.59-35.63
			c-12.31-6.78-24.38-14.65-38.74-16.33c-9.54-1.11-12.89,3.8-10.32,13.16C526.99,764.9,569.5,790.05,596.28,791.15z"/>
		<path class="st2" d="M529.45,641.55c4.94,4.4,9.7,9.02,14.86,13.15c5.86,4.68,1.08,8.33-1.14,11.72
			c-2.58,3.95-6.79,6.75-11.17,2.69c-8.6-7.96-18.88-13.83-26.82-22.63c-11.98-13.29-8.88-25,8.32-28.82
			c3.95-0.88,7.93-1.54,12.3-3.13c-11.97-9.5-21.47-20.67-27.47-34.59c-4.92-11.42-6.65-23.13-1.53-34.76
			c4.76-10.82,16.2-14.74,29.82-11.24c25.2,6.47,49.01,17.41,74.47,23.02c1.53,0.34,3.11,1.06,4.58,0.9
			c4.18-0.45,9.71,2.31,12.09-2.89c2.25-4.92-1.14-8.97-4.41-12.61c-7.09-7.9-8.55-15.93-3.87-22.08c1.64-2.15,3.49-4.96,6.8-1.7
			c10.95,10.77,20.75,22.33,21.12,38.67c0.39,17.38-14.16,29.07-31.01,25.19c-20.48-4.72-40.47-11.16-60.08-18.69
			c-5.9-2.27-11.92-3.85-18.06-4.97c-7.56-1.37-12.26,4.37-10.42,12.06c2.96,12.39,12.7,19.58,21.59,26.84
			c22.97,18.77,50.7,26.79,79.08,32.94c2.14,0.46,4.19,1.32,6.34,1.75c12.03,2.4,15.92,8.94,12.47,20.66
			c-1.65,5.59-5.75,5.14-9.86,4.25c-15.89-3.41-31.71-7.21-47.64-10.42c-16.1-3.24-32.3-5.96-48.46-8.91
			C530.72,639.15,530.09,640.35,529.45,641.55z"/>
		<path class="st2" d="M786.5,608.42c0.63-5.88-1.17-10.67-5.26-14.75c-3.12-3.11-3.93-6.97-0.09-9.84c4-2.99,6.35,0.78,8.44,3.45
			c7.81,9.98,10.34,21.37,8.38,33.79c-1.89,11.94-13.98,20.83-27.18,18.93c-18.4-2.65-35.17-9.36-46.47-25.05
			c-4.51-6.25-8.4-13.75-5.82-21.95c1.99-6.35,5.42-12.64,12.92-13.75c8.75-1.3,16.47,1.09,22.9,7.87c6.8,7.17,9.17,16.25,12.55,25
			c1.82,4.7,0.78,12.63,9.64,10.63C783.92,621.06,788.04,616.42,786.5,608.42z M754.31,616.25c-1.52-8.79-3.36-15.26-7.72-20.66
			c-2.3-2.85-5.7-6.16-9.36-4c-4.7,2.78-2.19,7.32-0.12,10.72C740.76,608.3,746.49,611.99,754.31,616.25z"/>
		<path class="st2" d="M735.93,730.81c-1.68,5.66-5.03,10.82-4.85,17.06c0.13,4.48,1.59,8.15,5.82,9.91
			c4.39,1.83,8.41,1.37,12.04-2.48c2.88-3.06,4.77-6.61,7.04-10.02c5.04-7.53,11.44-14.67,21.26-13.03
			c9.66,1.62,16.91,7.77,19.32,18.13c2.1,9.02,2.93,17.67-1.97,26.46c-7,12.54-7.44,12.84-17.07,1.82
			c9.91-11.51,11.21-16.82,5.88-24.01c-5.68-7.65-12.39-7.38-17.24,0.85c-1.9,3.23-3.05,6.92-5.11,10.02
			c-5.32,7.99-15.1,11.12-24.6,8.23c-8.38-2.55-16.41-12.38-16.78-20.67c-0.13-2.85-0.08-5.72-0.01-8.58
			C720,729.22,720.92,728.45,735.93,730.81z"/>
		<path class="st2" d="M719.18,539.14c6.13-0.18,10.51,4.46,17.05,3.07c-8.16-6.15-13.16-13.65-15.71-22.96
			c-1.08-3.94-0.37-5.68,3.57-5.16c5.81,0.76,10.93,1.44,13.66,8.8c5.99,16.13,15.67,28.99,34.58,31.97
			c7.01,1.11,13.63,4.56,20.57,6.41c3.74,0.99,4.97,2.66,5.18,6.49c0.61,11.05,0.83,10.95-9.96,7.51
			c-19.35-6.17-38.48-13.07-58.35-17.51c-5.11-1.14-10.31-2-9.38-9.5C720.74,545.37,719.64,542.29,719.18,539.14z"/>
		<path class="st0" d="M761.68,506.67c1.1,0.02,2.8-0.75,2.09,1.62C763.07,507.75,762.38,507.21,761.68,506.67z"/>
		<path class="st1" d="M559.18,902.31c-11.87-6.72-22.96-14.4-30.46-26.14c-1.66-2.6-5.38-4.97-2.45-9.06
			c2.68-3.73,6.52-4.05,10.26-3.05c13.3,3.58,26.67,7,39.19,12.95c9.65,4.59,19.16,9.35,28.22,15.11
			c7.34,4.66,12.33,10.62,14.71,18.88c-6.56,0.57-12.99,0.21-19.61-0.5C585.42,909.05,572.58,904.43,559.18,902.31z"/>
		<path class="st0" d="M559.18,902.31c13.4,2.12,26.24,6.74,39.86,8.2c6.62,0.71,13.05,1.06,19.61,0.5
			c2.85,1.67,2.17,5.04,2.99,7.44c2.81,8.27-1.48,12.26-9.83,10.13c-17.01-4.34-33.89-8.96-47.48-20.99
			C562.5,905.96,560.89,904.08,559.18,902.31z"/>
		<path class="st0" d="M526.25,1026.05c9.57,1.52,18.73,5.31,27.44,9.89c18.28,9.61,36.56,19.45,48.05,37.74
			c2.62,4.18,5.21,8.55,6.76,13.19c2.83,8.47-3.07,15.53-11.85,13.79c-32.22-6.39-58.75-21.45-74.8-51.44
			c-2.03-3.79-3.79-8-4.4-12.21C516.59,1031.09,518.78,1026.47,526.25,1026.05z"/>
		<path class="st1" d="M736.22,662.09c16.61-2.79,46.46,11.18,52.32,24.28c1.33,2.97,2.97,6.02,0.94,8.89
			c-2.45,3.46-5.87,0.34-8.59-0.02c-16.79-2.22-27.77-14.67-40.43-24.06C737.87,669.26,736.14,665.82,736.22,662.09z"/>
		<path class="st0" d="M744.76,879.05c7.76,4.67,5.98,13.52,9.09,20.46c-7.95-2.54-13.97-6.96-17.24-14.63
			C739.33,882.93,742.05,880.99,744.76,879.05z"/>
		<path class="st1" d="M744.76,879.05c-2.72,1.94-5.43,3.89-8.15,5.83c-2.55-2.63-2.96-5.52,0.17-7.68
			C739.73,875.16,742.54,876.52,744.76,879.05z"/>
		<path class="st0" d="M754.14,437.22c-8.24-2.72-12.39-9.33-17.58-14.59c-2.66-2.69-3.06-7.31-0.45-9.2
			c2.76-1.99,7.25-1.69,10.09,1.94C750.97,421.44,752.08,428.85,754.14,437.22z"/>
		<path class="st1" d="M596.28,791.15c-26.78-1.1-69.29-26.24-78.36-59.32c-2.56-9.36,0.79-14.28,10.32-13.16
			c14.35,1.68,26.42,9.55,38.74,16.33c15.55,8.56,29.33,19.25,37.59,35.63c0.84,1.66,1.78,3.28,2.42,5.01
			C611.45,787.7,609.03,791.17,596.28,791.15z"/>
		<path class="st1" d="M754.31,616.25c-7.81-4.26-13.55-7.95-17.2-13.93c-2.08-3.4-4.59-7.94,0.12-10.72c3.67-2.17,7.06,1.15,9.36,4
			C750.95,600.99,752.78,607.47,754.31,616.25z"/>
	</g>
</g>
</svg>
