<?xml version="1.0" encoding="utf-8"?>
<!-- Generator: Adobe Illustrator 24.0.1, SVG Export Plug-In . SVG Version: 6.00 Build 0)  -->
<svg version="1.1" id="Layer_1" xmlns="http://www.w3.org/2000/svg" xmlns:xlink="http://www.w3.org/1999/xlink" x="0px" y="0px"
	 viewBox="0 0 1296 1728" style="enable-background:new 0 0 1296 1728;" xml:space="preserve">
<style type="text/css">
	.st0{fill:#FEFEFE;}
	.st1{fill:#E30433;}
	.st2{fill:#F2F2F2;}
</style>
<g>
	<path class="st0" d="M1054.61,472.24c0,23.23-0.14,46.47,0.13,69.69c0.05,4.22-0.81,5.79-5.05,4.95c-1.26-0.25-2.61-0.04-3.92-0.04
		c-290.81,0-581.62-0.03-872.43,0.18c-7.37,0.01-9.05-1.66-9.03-9.02c0.27-114.2,0.26-228.39,0-342.59
		c-0.02-6.72,1.32-8.05,8.05-8.04c193.87,0.23,387.75,0.19,581.62,0.19c-3.3,4.01-7.79,1.13-11.64,2.02
		c-45.25,10.41-82.49,32.7-107.97,72.49c-8.9,2.64-15.13,9.6-22.78,14.57c-2.13-3.96-0.15-7.16,0.54-10.55
		c1.97-9.69-1.11-12.25-10.77-10.38c-11.36,2.19-21.35,7.97-32.19,11.47c-6.82,2.2-8.41,4.78-3.03,11.39
		c4.71,5.78,9.3,8.37,16.83,6.05c-5.99,35.04-14.69,68.36-20.57,102.18c-5.23,30.06-14.09,57.94-33.76,81.73
		c-1.13,1.37-3.13,2.79-0.1,5.86c12.75-9.87,25.75-19.84,33.12-34.65c9.44-18.99,16.96-39,21.81-59.58
		c3.22-13.64,8.19-22.37,23.38-21.72c-0.04,4.46,0.24,8.85,0.73,13.34c1.85,17.16,8.04,33.04,13.01,49.29
		c-13.42,6.21-18.77,17.93-21.97,31.39c-2.3,9.67-1.11,18.25,7.37,24.07c6.67,4.57,24.35,1.4,30.37-4.67
		c1.72-1.74,4.39-3.85,2.09-6.51c-1.64-1.89-4.4-1.15-6.27,0.31c-4.3,3.38-8.96,5.42-14.48,4.44c-4.37-0.77-6.66-3.53-7.15-8.03
		c-0.48-4.43,2.4-5.99,5.72-6.36c7.33-0.82,13.06-5.79,20.11-7.19c5.35,2.59,5.82,9.78,11.46,12.1c-0.59,2.81-1.85,5.69-1.59,8.43
		c0.28,2.97-3.7,7.49,1.6,8.81c4.44,1.11,9.37,0.67,9.94-5.89c23.74,22.95,52.24,36.64,84.34,43.36
		c0.42,9.81-10.98,14.62-11.08,25.1c1.61-0.75,2.45-1.08,3.25-1.51c8.78-4.76,10.51-15.29,17.56-21.47
		c7.83-0.02,15.67-0.17,23.5-0.04c30.45,0.51,58.19-8.8,83.88-24.19c16.92-10.14,31.52-23.36,43.91-38.85
		c0.07,5.56,0.16,11.12,0.19,16.68c0.02,3.69,1.26,6.34,5.32,6.96c8.37,1.28,15.59-1.1,21.42-7.12c1.68-1.74,3.89-4.49,1.73-6.92
		c-2.26-2.54-3.84,0.94-5.71,1.74c-2.92,1.24-5.77,3.95-8.98,1.15c-2.98-2.6-1.88-5.83-0.78-9.06c5.32-15.68,10.5-31.41,15.8-47.1
		c0.69-2.05,0.91-4.81,3.92-5c10.7-0.68,21.49-2.35,32.1-1.59c11.27,0.81,21.12-2.84,31.3-6.49c-14.39,0-28.77,0-43.16,0
		c-18.81,0-18.81,0-14.62-17.97c-2.86-0.78-4.71,1.74-7.17,2.19c0.74-2.79,2.02-5.56,2.14-8.38c1.19-27.14,0.78-54.12-9.79-79.83
		c-19.05-46.3-51.53-78.71-98.72-96.43c-12.65-4.75-25.97-5.94-38.76-9.64c85.97,0,171.95,0.08,257.92-0.16
		c6.16-0.02,7.51,1.43,7.5,7.52c-0.22,90.47-0.16,180.95-0.16,271.42c-3.85,0.18-7.88-0.75-11.23,2.23
		c-1.5,1.34-3.47,2.22-5.25,0.54c-1.76-1.66-0.54-3.59,0.03-5.43c2.99-9.64,5.92-19.3,8.89-28.95c3.35-10.88-2.25-17.25-13.47-15.3
		c-7.53,1.3-13.51,5.62-19.22,10.58c-4.75-10.71-10.45-11.64-17.16-3.32c-1.84,2.28-3.38,4.79-5.25,7.04
		c-1.58,1.91-1.1,3.57,0.11,5.3c1.43,2.04,3.25,1.77,5.17,0.82c1.95-0.96,2.86-3.72,6.67-3.07c-2.38,11.72-4.7,23.41-7.16,35.07
		c-0.47,2.25-1.79,4.71,1.27,5.76c2.85,0.98,6.08,1.13,7.64-2.26c1.07-2.32,1.47-4.95,2.18-7.44c3.5-12.25,7.15-24.44,16.89-33.55
		c2.79-2.61,5.39-6.96,9.79-4.71c5.2,2.65,1.23,6.92,0.33,10.31c-2.02,7.54-4.52,14.95-6.73,22.45c-1.42,4.82-2.53,9.98,2.08,13.55
		c4.87,3.78,10.42,2.62,15.8,0.55C1049,475.37,1050.95,472.07,1054.61,472.24z M174.32,419.23c-0.7-0.77-1.13-2.53-2.56-0.72
		C172.62,418.75,173.47,419,174.32,419.23c2.13,8.46,9.98,11.53,15.65,16.68c31.13,28.25,62.93,55.78,97.72,79.39
		c21.46,14.57,24.87,18.77,45.73-2.99c19.61-20.45,33.18-45.25,45.43-70.44c28.4-58.39,45.86-120.3,56.56-184.2
		c3.4-20.28,3.41-20.28-14.49-30.38c-0.28-0.16-0.7-0.2-0.87-0.44c-9.18-13-17.63-9.27-28.63-0.98
		c-13.42,10.11-30.15,11.63-46.82,10.84c-2.1-0.1-5.05-1.1-6.1,1.65c-0.99,2.6,1.76,3.9,3.21,5.52
		c9.39,10.49,20.21,16.89,35.23,14.57c7.49-1.16,14.78-2.66,21.73-5.39c7.76-3.06,8.46,0.86,7.21,6.67
		c-4.15,19.38-8.02,38.83-12.84,58.04c-9.92,39.56-22.04,78.43-39.21,115.53c-10.85,23.45-23.89,45.64-40.31,65.73
		c-3.68,4.5-6.97,6.56-13.09,2.99c-26.54-15.47-51.8-32.79-75.13-52.68C209.96,436.25,193.17,426.15,174.32,419.23z M508.89,335.75
		c3.19,2.89,2.96,6.19,3.57,9.37c1.62,8.44,6.92,13.62,15.64,13.08c10.08-0.62,18.79-4.71,24.7-13.53c1.69-2.52,3.85-4.91,1.34-7.81
		c-2.47-2.85-6-2.61-9.07-1.36c-2,0.82-3.62,2.7-5.27,4.25c-2.85,2.66-5.69,6.64-9.94,4.11c-4.49-2.68-4.21-7.55-3.13-12.29
		c4.54-19.92,8.87-39.88,13.46-59.79c3-13.01-0.11-16.63-13.71-17.56c-29.19-1.99-51.92,9.43-69.04,32.49
		c-11.09,14.94-16.28,31.95-13.68,50.51c2.13,15.23,13.8,28.22,32.9,21.16C489.57,353.62,499.29,344.81,508.89,335.75z
		 M959.17,478.13c5.4,0.29,11.6-0.32,16.48-4.74c2.23-2.02,6.93-4.35,4.95-7.39c-2.59-3.98-6.15-0.3-9.15,1.47
		c-1.93,1.14-4.08,2.24-6.26,2.58c-5.5,0.84-10.74,0.26-12.49-6.25c-1.93-7.21,3.84-8.08,8.48-8.98c7.76-1.5,13.99-5.29,18.83-11.29
		c4.7-5.82,6.19-12.93,1.77-18.93c-4.76-6.47-12.09-6.95-19.42-3.45c-14.01,6.7-19.53,19.08-22.69,33.26
		C936.64,468.02,944.38,478.13,959.17,478.13z M523.59,478.47c-0.08-0.28-0.11-0.61-0.28-0.82c-0.06-0.08-0.47,0.11-0.72,0.18
		c0.08,0.28,0.11,0.61,0.28,0.83C522.94,478.73,523.34,478.54,523.59,478.47z M727.51,542.17c-0.04,0.49-0.08,0.99-0.13,1.48
		c0.19-0.23,0.51-0.45,0.53-0.69C727.93,542.71,727.66,542.43,727.51,542.17z"/>
	<path class="st1" d="M647.84,460.64c-5.64-2.31-6.11-9.51-11.46-12.1c-0.25-1.71,0.28-3.13,1.5-4.37
		c5.76-5.82,6.27-13.25,2.36-19.29c-4.49-6.94-12.13-7.41-19.66-3.8c-4.97-16.25-11.16-32.13-13.01-49.29
		c-0.48-4.48-0.76-8.87-0.73-13.34c4.3-1.09,8.6-2.16,12.36-4.69c22.84-15.39,39.6-35.12,42.22-63.58
		c1.49-16.17-6.61-35.62-27.06-28.11c25.48-39.79,62.72-62.09,107.97-72.49c3.85-0.89,8.35,1.99,11.64-2.02c11.79,0,23.58,0,35.37,0
		c12.79,3.7,26.11,4.89,38.76,9.64c47.19,17.72,79.67,50.13,98.72,96.43c10.58,25.71,10.98,52.69,9.79,79.83
		c-0.12,2.82-1.4,5.59-2.14,8.38c-7.21-1.04-7.48,5.19-8.49,9.22c-1.38,5.53-4.09,6.48-9.33,6.71c-12.34,0.54-24.71,1.61-37.73,4.7
		c3.87,6.07,6.48,10.72,14.74,7.78c6.2-2.21,13.28-2,19.98-2.72c4.76-0.51,6.3,0.78,4.39,6.02c-4.66,12.79-8.61,25.83-12.85,38.77
		c-0.71,0.72-1.42,1.45-2.12,2.17l0.08-0.11c-12.39,15.49-26.99,28.71-43.91,38.85c-25.69,15.39-53.43,24.7-83.88,24.19
		c-7.83-0.13-15.67,0.02-23.5,0.04c1.16-12.9,7.65-24.29,10.49-36.72c0.64-2.8,3.46-2.35,5.74-2.59
		c19.83-2.05,37.35-24.06,35.06-43.96c-1.13-9.82-8.59-13.81-17.52-9.13c-3.9,2.04-7.49,4.67-11.66,7.3
		c1.29-4.41,3.64-9.15,0.61-12.31c-3.04-3.17-6.95,1.58-10.91,1.48c-3.2-0.08-6.65,2.14-9.64,3.92c-2.02,1.2-5.51,0.55-5.9,4.09
		c-0.4,3.6,2.45,6.36,4.69,6.66c7.51,1.03,4.91,6.16,4.77,10.15c-0.09,2.5-1.12,4.97-1.68,7.46c-4.58,20.51-7.7,41.35-13.77,61.52
		c-32.1-6.72-60.6-20.4-84.34-43.36c1.45-5.47,2.9-10.95,4.69-17.71c6.7,23.71,17.06,32.95,36.58,13.97
		c4.67,9.41,17.36,12.57,28.69,8.38c7.41-2.74,11.55-8.29,11.94-14.76c0.34-5.54-2.61-11.76-9.29-14.39
		c-2.33-0.92-4.55-2.56-6.31-4.36c-2.5-2.55-6.08-4.42-3.84-9.6c2.17-5,5.78-4.19,9.59-4.48c2.49-0.19,4.32,1.01,6.33,1.97
		c4.06,1.94,3.62-1.96,4.98-3.69c2.11-2.69,0.42-4.39-1.51-5.57c-8.52-5.23-23.68-1.7-28.72,6.54c-5.9,9.64-3,18.31,8.57,25.11
		c4.4,2.59,9.36,5.24,6.06,11.19c-3.43,6.18-11.14,5.53-14.35,2.27c-6.09-6.18-8.54-0.77-12.32,1.61c-2.82-3.59-5.5-5.56-9.77-1.32
		c-6.78,6.72-11.08,0.25-13.66-4.33c-2.5-4.45-8.15-9.9-0.26-15.64c7.33-5.32,13.51-12.05,18.59-19.7c2.06-3.11,1.82-5.86-1.15-7.43
		c-2.85-1.5-5.94-2.1-7.58,2.67c-3.4,9.9-12.14,15.27-20.81,23.81c5.51-24.06,10.49-45.79,15.32-66.89
		c-14.04-1.34-13.97,8.64-16.03,17.05C658.29,418,654.57,439.69,647.84,460.64z M737.91,332.54c0.21,4.28-0.02,7.23,0.56,10
		c2.21,10.5,10.37,17.5,18.83,15.74c7.93-1.65,15.55-4.51,20.77-11.24c2.26-2.91,8.05-5.67,3.64-10.01
		c-3.66-3.6-8.65-3.55-12.71,1.22c-3.06,3.59-6.43,8.7-12.05,5.77c-5.49-2.86-2.18-8.87-2.84-13.46c-0.17-1.18,0.53-2.49,0.82-3.74
		c4.27-18.36,8.7-36.69,12.77-55.09c2.96-13.37-0.55-16.75-14.93-17.57c-29.39-1.67-52.25,10.04-68.58,33.79
		c-11.71,17.03-18.82,35.64-10.94,56.86c4.75,12.79,13.54,16.83,26.84,14C715.98,355.44,726.52,345.13,737.91,332.54z
		 M809.22,281.44c-4.96,24.8-9.63,48.31-14.43,71.79c-0.4,1.96-2.72,3.27,0.65,5.33c7.5,4.58,15.65,1.49,17.58-7.07
		c4.09-18.13,8.24-36.27,17.77-52.55c5.45-9.3,11.83-17.9,20.67-24.35c4.26-3.11,9.59-4.21,13.71-1.58
		c4.52,2.89,2.09,8.06,0.7,12.27c-5.1,15.43-11.33,30.53-14.52,46.52c-1.42,7.1-3.82,14.62,2.2,21.1
		c10.67,11.47,37.39,5.86,43.5-9.19c0.9-2.21,1.13-4.12-2.28-5.09c-6.08-1.72-11.24-1.32-15.74,3.6c-2.15,2.35-5.25,4.8-8.3,3.75
		c-3.72-1.28-2.82-5.44-2.67-8.62c0.09-1.89,0.62-3.79,1.18-5.62c5.04-16.53,10.1-33.04,15.2-49.55c4.08-13.2,0.91-24.03-8.91-26.94
		c-6.78-2.01-13.89-1.65-20.98,0.78c-11.95,4.1-20.37,12.86-29.88,22.72c0-4.28,0.42-6.65-0.07-8.83
		c-3.29-14.64-12.19-17.56-23.03-7.01c-5.49,5.34-9.53,12.14-14.43,18.11c-2.77,3.37-3.02,6.84,0.24,9.36
		c3.23,2.49,6.95,4.36,10.78-0.36C800.67,286.9,803.17,283.19,809.22,281.44z M850.16,464.98c-3.27-0.79-6.1-1.32-8.94,1.37
		c-1.57,1.49-3.73,2.75-5.82,3.23c-5.94,1.38-12.05,1.91-14.42-5.57c-2.4-7.59,3.99-8.03,8.61-9.32c7.61-2.13,14.66-5.11,19.44-11.7
		c4.11-5.68,4.9-12,1.31-18.15c-3.44-5.9-9.59-6.52-15.43-5.48c-14.58,2.61-30.93,29.37-27.13,43.94
		c1.84,7.04,4.71,14.05,13.01,14.7C833.65,479.01,844.14,478.74,850.16,464.98z M853.14,477.56c8.69,2.95,12.21-1.17,14.5-9.08
		c2.71-9.36,3.5-19.73,12.05-26.68c4.85-3.94,9.85-7.2,15.92-8.9c5.29-1.48,4.73-6.72,3.74-9.77c-1.36-4.2-5.35-1.97-8.02-0.37
		c-3.8,2.27-7.37,4.92-10.95,7.35c-2.91-3.41,4.8-8.53-0.31-9.59c-2.84-0.59-10.88-2.2-12.16,6.09
		C865.18,444.22,857.65,460.52,853.14,477.56z"/>
	<path class="st2" d="M1054.61,472.24c-3.67-0.17-5.61,3.12-8.63,4.29c-5.38,2.08-10.93,3.23-15.8-0.55
		c-4.61-3.58-3.5-8.73-2.08-13.55c2.21-7.49,4.72-14.9,6.73-22.45c0.91-3.39,4.87-7.66-0.33-10.31c-4.41-2.25-7,2.11-9.79,4.71
		c-9.74,9.11-13.39,21.3-16.89,33.55c-0.71,2.49-1.11,5.12-2.18,7.44c-1.56,3.38-4.79,3.23-7.64,2.26
		c-3.06-1.05-1.75-3.51-1.27-5.76c2.46-11.66,4.78-23.35,7.16-35.07c-3.81-0.65-4.72,2.11-6.67,3.07c-1.92,0.95-3.74,1.22-5.17-0.82
		c-1.21-1.73-1.68-3.4-0.11-5.3c1.86-2.25,3.41-4.76,5.25-7.04c6.71-8.32,12.41-7.4,17.16,3.32c5.7-4.96,11.69-9.28,19.22-10.58
		c11.22-1.94,16.82,4.43,13.47,15.3c-2.97,9.65-5.9,19.31-8.89,28.95c-0.57,1.85-1.79,3.77-0.03,5.43c1.77,1.67,3.74,0.79,5.25-0.54
		c3.35-2.99,7.38-2.05,11.23-2.23C1054.61,468.32,1054.61,470.28,1054.61,472.24z"/>
	<path class="st2" d="M174.32,419.23c18.85,6.91,35.64,17.01,51,30.11c23.34,19.89,48.59,37.21,75.13,52.68
		c6.12,3.57,9.41,1.51,13.09-2.99c16.42-20.09,29.45-42.28,40.31-65.73c17.17-37.1,29.29-75.98,39.21-115.53
		c4.82-19.21,8.69-38.66,12.84-58.04c1.25-5.82,0.55-9.73-7.21-6.67c-6.95,2.74-14.25,4.24-21.73,5.39
		c-15.02,2.32-25.84-4.08-35.23-14.57c-1.45-1.62-4.2-2.92-3.21-5.52c1.04-2.74,4-1.75,6.1-1.65c16.67,0.79,33.39-0.73,46.82-10.84
		c11-8.28,19.45-12.01,28.63,0.98c0.16,0.23,0.58,0.28,0.87,0.44c17.9,10.1,17.89,10.1,14.49,30.38
		c-10.7,63.9-28.16,125.81-56.56,184.2c-12.25,25.19-25.82,49.99-45.43,70.44c-20.87,21.76-24.27,17.56-45.73,2.99
		c-34.79-23.61-66.59-51.14-97.72-79.39C184.3,430.76,176.45,427.7,174.32,419.23L174.32,419.23z"/>
	<path class="st2" d="M634.37,262.08c20.45-7.51,28.55,11.94,27.06,28.11c-2.62,28.46-19.37,48.19-42.22,63.58
		c-3.75,2.53-8.06,3.6-12.36,4.69c-15.19-0.65-20.16,8.08-23.38,21.72c-4.85,20.58-12.38,40.59-21.81,59.58
		c-7.36,14.81-20.36,24.78-33.12,34.65c-3.03-3.07-1.03-4.5,0.1-5.86c19.67-23.79,28.53-51.67,33.76-81.73
		c5.88-33.82,14.57-67.14,20.57-102.18c-7.53,2.31-12.13-0.27-16.83-6.05c-5.38-6.6-3.79-9.19,3.03-11.39
		c10.84-3.5,20.82-9.28,32.19-11.47c9.66-1.86,12.74,0.69,10.77,10.38c-0.69,3.39-2.68,6.59-0.54,10.55
		C619.24,271.68,625.47,264.73,634.37,262.08z M606.86,346.51c3.68-2.51,8.75-3,11.41-6.85c11.16-16.21,19.23-33.86,23.51-53.09
		c0.57-2.57,1.6-6.49-1.14-8.18c-2.96-1.82-6.25,0.09-8.95,2.06c-9.39,6.86-15.16,16.35-19.46,26.89
		c-11.4,6.14-12.93,17.67-15.57,28.56C593.42,349.22,594.07,349.87,606.86,346.51z"/>
	<path class="st2" d="M508.89,335.75c-9.6,9.06-19.32,17.86-32.22,22.63c-19.1,7.06-30.77-5.94-32.9-21.16
		c-2.6-18.55,2.59-35.57,13.68-50.51c17.12-23.06,39.85-34.48,69.04-32.49c13.59,0.93,16.71,4.55,13.71,17.56
		c-4.6,19.9-8.93,39.87-13.46,59.79c-1.08,4.75-1.36,9.61,3.13,12.29c4.25,2.53,7.1-1.45,9.94-4.11c1.66-1.55,3.27-3.43,5.27-4.25
		c3.07-1.26,6.6-1.49,9.07,1.36c2.52,2.9,0.35,5.29-1.34,7.81c-5.92,8.83-14.62,12.91-24.7,13.53c-8.72,0.54-14.02-4.64-15.64-13.08
		C511.85,341.95,512.08,338.65,508.89,335.75z M469.06,327.96c-0.24,10.88,3.12,13.13,12.77,8.33
		c21.54-10.73,30.36-31.08,38.9-51.61c1.55-3.72,2.96-8.29,0.15-11.06c-3.45-3.38-8.55-1.99-12.87-0.36
		C489.59,280.2,469.5,308.49,469.06,327.96z"/>
	<path class="st2" d="M742.13,515.35c6.07-20.18,9.18-41.02,13.77-61.52c0.56-2.49,1.59-4.96,1.68-7.46
		c0.14-3.99,2.74-9.11-4.77-10.15c-2.24-0.31-5.08-3.07-4.69-6.66c0.39-3.54,3.88-2.88,5.9-4.09c2.99-1.78,6.44-4,9.64-3.92
		c3.96,0.1,7.87-4.64,10.91-1.48c3.04,3.16,0.68,7.91-0.61,12.31c4.17-2.64,7.76-5.26,11.66-7.3c8.93-4.68,16.39-0.69,17.52,9.13
		c2.29,19.9-15.23,41.91-35.06,43.96c-2.27,0.23-5.1-0.21-5.74,2.59c-2.84,12.43-9.33,23.82-10.49,36.72
		c-7.05,6.18-8.78,16.71-17.56,21.47c-0.79,0.43-1.64,0.76-3.25,1.51C731.15,529.97,742.54,525.16,742.13,515.35z M792.87,435.28
		c-0.03-0.63-0.42-1.7-2.01-2.06c-2.2-0.5-3.82,0.44-5.21,1.92c-8.15,8.67-15.77,17.66-18.97,29.55c-0.69,2.57-2.01,5.56,0.48,7.07
		c1.98,1.2,4.78,0.57,7.25-1.19C786.34,462.08,788.59,448.53,792.87,435.28z"/>
	<path class="st2" d="M905.19,452.33c4.24-12.94,8.19-25.98,12.85-38.77c1.91-5.25,0.38-6.54-4.39-6.02
		c-6.7,0.72-13.78,0.52-19.98,2.72c-8.26,2.94-10.87-1.71-14.74-7.78c13.03-3.09,25.39-4.16,37.73-4.7
		c5.25-0.23,7.95-1.17,9.33-6.71c1-4.03,1.27-10.26,8.49-9.22c2.46-0.45,4.31-2.97,7.17-2.19c-4.19,17.97-4.19,17.97,14.62,17.97
		c14.39,0,28.77,0,43.16,0c-10.19,3.65-20.03,7.3-31.3,6.49c-10.61-0.76-21.39,0.91-32.1,1.59c-3.01,0.19-3.23,2.95-3.92,5
		c-5.31,15.69-10.49,31.42-15.8,47.1c-1.09,3.22-2.19,6.46,0.78,9.06c3.22,2.8,6.07,0.1,8.98-1.15c1.87-0.8,3.45-4.29,5.71-1.74
		c2.16,2.43-0.05,5.19-1.73,6.92c-5.82,6.01-13.05,8.39-21.42,7.12c-4.06-0.62-5.3-3.27-5.32-6.96c-0.03-5.56-0.12-11.12-0.19-16.68
		c0,0-0.08,0.11-0.07,0.11C903.78,453.77,904.48,453.05,905.19,452.33z"/>
	<path class="st2" d="M699.05,468.25c-19.52,18.98-29.88,9.74-36.58-13.97c-1.79,6.76-3.24,12.24-4.69,17.71
		c-0.56,6.56-5.49,6.99-9.94,5.89c-5.3-1.32-1.31-5.84-1.6-8.81c-0.26-2.73,1-5.61,1.59-8.43c6.72-20.95,10.45-42.64,15.68-63.96
		c2.06-8.4,1.99-18.39,16.03-17.05c-4.83,21.1-9.81,42.82-15.32,66.89c8.66-8.53,17.4-13.9,20.81-23.81
		c1.64-4.77,4.73-4.17,7.58-2.67c2.98,1.57,3.21,4.33,1.15,7.43c-5.08,7.65-11.26,14.38-18.59,19.7
		c-7.89,5.73-2.25,11.19,0.26,15.64c2.58,4.58,6.88,11.06,13.66,4.33c4.28-4.24,6.95-2.27,9.77,1.32L699.05,468.25z"/>
	<path class="st2" d="M620.6,421.09c7.52-3.6,15.17-3.14,19.66,3.8c3.9,6.04,3.39,13.47-2.36,19.29c-1.22,1.23-1.75,2.65-1.5,4.37
		c-7.05,1.39-12.78,6.37-20.11,7.19c-3.33,0.37-6.2,1.93-5.72,6.36c0.49,4.5,2.78,7.26,7.15,8.03c5.52,0.97,10.18-1.07,14.48-4.44
		c1.87-1.46,4.63-2.21,6.27-0.31c2.3,2.66-0.37,4.78-2.09,6.51c-6.02,6.07-23.7,9.25-30.37,4.67c-8.48-5.82-9.67-14.4-7.37-24.07
		C601.82,439.02,607.17,427.3,620.6,421.09z M631.07,437.65c-0.68-2.29-1.49-4.97-4.26-4.29c-4.59,1.12-7.53,4.79-9.49,8.8
		c-0.82,1.66,1.43,2.83,3.07,2.18C624.33,442.77,629.52,443,631.07,437.65z"/>
	<path class="st2" d="M959.17,478.13c-14.79-0.01-22.53-10.11-19.49-23.74c3.16-14.17,8.68-26.56,22.69-33.26
		c7.33-3.5,14.66-3.02,19.42,3.45c4.41,6,2.92,13.12-1.77,18.93c-4.84,6-11.07,9.79-18.83,11.29c-4.63,0.9-10.4,1.77-8.48,8.98
		c1.74,6.52,6.99,7.09,12.49,6.25c2.17-0.33,4.33-1.43,6.26-2.58c3-1.77,6.56-5.45,9.15-1.47c1.98,3.04-2.72,5.37-4.95,7.39
		C970.77,477.82,964.57,478.42,959.17,478.13z M971.1,431.79c-2.5-0.05-12.25,8.27-12.08,10.43c0.16,2.1,1.74,2.7,3.41,2.11
		c4.7-1.67,10.49-2.1,11.43-8.64C974.14,433.81,974.04,431.65,971.1,431.79z"/>
	<path class="st2" d="M174.32,419.24c-0.85-0.24-1.7-0.49-2.55-0.73C173.2,416.7,173.62,418.46,174.32,419.24
		C174.32,419.23,174.32,419.24,174.32,419.24z"/>
	<path class="st2" d="M523.59,478.47c-0.25,0.07-0.65,0.26-0.71,0.18c-0.17-0.22-0.2-0.54-0.28-0.83c0.25-0.07,0.65-0.26,0.72-0.18
		C523.48,477.86,523.5,478.19,523.59,478.47z"/>
	<path class="st2" d="M727.51,542.17c0.15,0.26,0.42,0.54,0.4,0.79c-0.02,0.24-0.34,0.46-0.53,0.69
		C727.43,543.16,727.47,542.66,727.51,542.17z"/>
	<path class="st2" d="M737.91,332.54c-11.39,12.6-21.93,22.9-37.81,26.28c-13.3,2.83-22.09-1.21-26.84-14
		c-7.88-21.23-0.78-39.83,10.94-56.86c16.33-23.74,39.19-35.45,68.58-33.79c14.39,0.82,17.89,4.2,14.93,17.57
		c-4.08,18.4-8.5,36.73-12.77,55.09c-0.29,1.25-0.99,2.56-0.82,3.74c0.66,4.59-2.65,10.6,2.84,13.46c5.61,2.93,8.99-2.18,12.05-5.77
		c4.06-4.77,9.05-4.82,12.71-1.22c4.41,4.34-1.38,7.09-3.64,10.01c-5.22,6.73-12.84,9.59-20.77,11.24
		c-8.46,1.76-16.62-5.24-18.83-15.74C737.89,339.77,738.12,336.82,737.91,332.54z M695.09,329.39c-0.38,8.2,4.66,11.12,12.91,7.48
		c23.05-10.19,31.94-31.14,40.12-52.65c1.49-3.91,3.68-7.67-0.37-11.54c-3.7-3.54-7.7-1.29-10.79-0.03
		C713.45,282.17,699.81,305.88,695.09,329.39z"/>
	<path class="st2" d="M809.22,281.44c-6.05,1.75-8.55,5.46-11.07,8.57c-3.83,4.72-7.55,2.85-10.78,0.36
		c-3.27-2.52-3.01-5.99-0.24-9.36c4.9-5.97,8.95-12.77,14.43-18.11c10.84-10.55,19.75-7.62,23.03,7.01
		c0.49,2.17,0.07,4.55,0.07,8.83c9.51-9.86,17.93-18.63,29.88-22.72c7.09-2.43,14.2-2.79,20.98-0.78
		c9.82,2.91,12.98,13.73,8.91,26.94c-5.09,16.51-10.16,33.02-15.2,49.55c-0.56,1.83-1.1,3.73-1.18,5.62
		c-0.15,3.18-1.04,7.33,2.67,8.62c3.05,1.05,6.14-1.4,8.3-3.75c4.51-4.92,9.67-5.32,15.74-3.6c3.41,0.97,3.18,2.87,2.28,5.09
		c-6.11,15.05-32.83,20.66-43.5,9.19c-6.02-6.47-3.62-13.99-2.2-21.1c3.19-15.99,9.42-31.1,14.52-46.52
		c1.39-4.21,3.83-9.38-0.7-12.27c-4.11-2.63-9.45-1.52-13.71,1.58c-8.84,6.45-15.23,15.05-20.67,24.35
		c-9.53,16.28-13.68,34.42-17.77,52.55c-1.93,8.56-10.08,11.66-17.58,7.07c-3.37-2.06-1.05-3.37-0.65-5.33
		C799.59,329.74,804.26,306.23,809.22,281.44z"/>
	<path class="st2" d="M850.16,464.98c-6.02,13.76-16.51,14.03-29.36,13.03c-8.3-0.65-11.17-7.66-13.01-14.7
		c-3.8-14.57,12.55-41.33,27.13-43.94c5.83-1.05,11.99-0.42,15.43,5.48c3.58,6.14,2.8,12.47-1.31,18.15
		c-4.77,6.6-11.83,9.58-19.44,11.7c-4.62,1.29-11.01,1.73-8.61,9.32c2.36,7.48,8.48,6.95,14.42,5.57c2.1-0.49,4.25-1.74,5.82-3.23
		C844.06,463.66,846.89,464.2,850.16,464.98z M824.69,442.23c0.69,0.85,1.38,1.7,2.08,2.56c5.4-0.24,10.53-1.3,14.35-5.76
		c1.88-2.19,2.07-5.21,0.48-7.12c-1.88-2.26-4.23,0.23-5.82,1.35C831.9,435.99,828.37,439.21,824.69,442.23z"/>
	<path class="st2" d="M698.87,468.47c3.78-2.38,6.23-7.8,12.32-1.61c3.21,3.26,10.92,3.91,14.35-2.27c3.3-5.95-1.66-8.6-6.06-11.19
		c-11.57-6.79-14.47-15.47-8.57-25.11c5.04-8.23,20.2-11.77,28.72-6.54c1.93,1.18,3.61,2.88,1.51,5.57
		c-1.36,1.74-0.92,5.63-4.98,3.69c-2.01-0.96-3.84-2.16-6.33-1.97c-3.81,0.29-7.42-0.53-9.59,4.48c-2.25,5.18,1.34,7.06,3.84,9.6
		c1.77,1.8,3.98,3.45,6.31,4.36c6.68,2.62,9.62,8.85,9.29,14.39c-0.39,6.47-4.53,12.01-11.94,14.76
		c-11.33,4.19-24.01,1.04-28.69-8.38C699.05,468.25,698.87,468.47,698.87,468.47z"/>
	<path class="st2" d="M853.14,477.56c4.51-17.04,12.04-33.34,14.77-50.95c1.28-8.29,9.33-6.68,12.16-6.09
		c5.1,1.06-2.6,6.18,0.31,9.59c3.58-2.43,7.15-5.09,10.95-7.35c2.67-1.59,6.67-3.83,8.02,0.37c0.98,3.05,1.55,8.28-3.74,9.77
		c-6.07,1.7-11.07,4.96-15.92,8.9c-8.55,6.96-9.33,17.32-12.05,26.68C865.34,476.39,861.83,480.51,853.14,477.56z"/>
	<path class="st0" d="M905.19,452.33c-0.71,0.72-1.41,1.45-2.12,2.17C903.78,453.77,904.48,453.05,905.19,452.33z"/>
	<path class="st1" d="M612.22,307.34c4.3-10.55,10.07-20.03,19.46-26.89c2.7-1.97,5.99-3.88,8.95-2.06
		c2.74,1.69,1.72,5.61,1.14,8.18c-4.28,19.23-12.35,36.88-23.51,53.09c-2.65,3.85-7.72,4.35-11.41,6.85
		C605.38,333,611.3,320.51,612.22,307.34z"/>
	<path class="st0" d="M612.22,307.34c-0.93,13.17-6.84,25.67-5.36,39.17c-12.79,3.37-13.45,2.71-10.21-10.61
		C599.3,325,600.82,313.48,612.22,307.34z"/>
	<path class="st0" d="M469.06,327.96c0.43-19.47,20.52-47.76,38.94-54.7c4.32-1.63,9.42-3.02,12.87,0.36
		c2.82,2.77,1.4,7.34-0.15,11.06c-8.54,20.54-17.36,40.88-38.9,51.61C472.18,341.09,468.82,338.84,469.06,327.96z"/>
	<path class="st1" d="M792.87,435.28c-4.28,13.26-6.52,26.8-18.47,35.3c-2.47,1.76-5.27,2.39-7.25,1.19
		c-2.49-1.51-1.17-4.51-0.48-7.07c3.2-11.88,10.82-20.88,18.97-29.55c1.4-1.49,3.01-2.42,5.21-1.92
		C792.45,433.58,792.84,434.65,792.87,435.28z"/>
	<path class="st0" d="M631.07,437.65c-1.55,5.35-6.74,5.12-10.68,6.69c-1.64,0.65-3.89-0.51-3.07-2.18c1.97-4.01,4.9-7.67,9.49-8.8
		C629.59,432.68,630.39,435.36,631.07,437.65z"/>
	<path class="st0" d="M971.11,431.79c2.94-0.14,3.03,2.03,2.76,3.91c-0.94,6.53-6.74,6.97-11.43,8.64c-1.68,0.59-3.25,0-3.41-2.11
		C958.85,440.06,968.6,431.74,971.11,431.79z"/>
	<path class="st1" d="M695.09,329.39c4.71-23.51,18.35-47.22,41.87-56.74c3.09-1.25,7.08-3.51,10.79,0.03
		c4.05,3.87,1.86,7.63,0.37,11.54c-8.18,21.51-17.07,42.46-40.12,52.65C699.76,340.52,694.72,337.59,695.09,329.39z"/>
	<path class="st1" d="M824.69,442.23c3.67-3.02,7.21-6.24,11.09-8.97c1.59-1.12,3.93-3.61,5.82-1.35c1.59,1.91,1.4,4.92-0.48,7.12
		c-3.82,4.46-8.95,5.52-14.35,5.76C826.08,443.93,825.38,443.08,824.69,442.23z"/>
</g>
</svg>
